<mxfile host="Electron" agent="Mozilla/5.0 (Windows NT 10.0; Win64; x64) AppleWebKit/537.36 (KHTML, like Gecko) draw.io/26.0.4 Chrome/128.0.6613.186 Electron/32.2.5 Safari/537.36" version="26.0.4">
  <diagram id="C5RBs43oDa-KdzZeNtuy" name="Page-1">
    <mxGraphModel dx="724" dy="440" grid="1" gridSize="10" guides="1" tooltips="1" connect="1" arrows="1" fold="1" page="1" pageScale="1" pageWidth="827" pageHeight="1169" math="0" shadow="0">
      <root>
        <mxCell id="WIyWlLk6GJQsqaUBKTNV-0" />
        <mxCell id="WIyWlLk6GJQsqaUBKTNV-1" parent="WIyWlLk6GJQsqaUBKTNV-0" />
        <mxCell id="kjFHU3xgdgTrl40pdijx-7" value="" style="rounded=0;whiteSpace=wrap;html=1;" parent="WIyWlLk6GJQsqaUBKTNV-1" vertex="1">
          <mxGeometry x="260" y="140" width="410" height="80" as="geometry" />
        </mxCell>
        <mxCell id="gby2fcfXkTsY0gk-hoLp-0" value="Employee" style="shape=umlLifeline;perimeter=lifelinePerimeter;whiteSpace=wrap;html=1;container=1;dropTarget=0;collapsible=0;recursiveResize=0;outlineConnect=0;portConstraint=eastwest;newEdgeStyle={&quot;edgeStyle&quot;:&quot;elbowEdgeStyle&quot;,&quot;elbow&quot;:&quot;vertical&quot;,&quot;curved&quot;:0,&quot;rounded&quot;:0};" parent="WIyWlLk6GJQsqaUBKTNV-1" vertex="1">
          <mxGeometry x="304" y="60" width="100" height="300" as="geometry" />
        </mxCell>
        <mxCell id="gby2fcfXkTsY0gk-hoLp-2" value="" style="html=1;points=[[0,0,0,0,5],[0,1,0,0,-5],[1,0,0,0,5],[1,1,0,0,-5]];perimeter=orthogonalPerimeter;outlineConnect=0;targetShapes=umlLifeline;portConstraint=eastwest;newEdgeStyle={&quot;curved&quot;:0,&quot;rounded&quot;:0};" parent="gby2fcfXkTsY0gk-hoLp-0" vertex="1">
          <mxGeometry x="45" y="70" width="10" height="220" as="geometry" />
        </mxCell>
        <mxCell id="kjFHU3xgdgTrl40pdijx-1" value="System" style="shape=umlLifeline;perimeter=lifelinePerimeter;whiteSpace=wrap;html=1;container=1;dropTarget=0;collapsible=0;recursiveResize=0;outlineConnect=0;portConstraint=eastwest;newEdgeStyle={&quot;edgeStyle&quot;:&quot;elbowEdgeStyle&quot;,&quot;elbow&quot;:&quot;vertical&quot;,&quot;curved&quot;:0,&quot;rounded&quot;:0};" parent="WIyWlLk6GJQsqaUBKTNV-1" vertex="1">
          <mxGeometry x="480" y="60" width="145" height="300" as="geometry" />
        </mxCell>
        <mxCell id="kjFHU3xgdgTrl40pdijx-2" value="" style="html=1;points=[[0,0,0,0,5],[0,1,0,0,-5],[1,0,0,0,5],[1,1,0,0,-5]];perimeter=orthogonalPerimeter;outlineConnect=0;targetShapes=umlLifeline;portConstraint=eastwest;newEdgeStyle={&quot;curved&quot;:0,&quot;rounded&quot;:0};" parent="kjFHU3xgdgTrl40pdijx-1" vertex="1">
          <mxGeometry x="67.5" y="70" width="10" height="220" as="geometry" />
        </mxCell>
        <mxCell id="kjFHU3xgdgTrl40pdijx-5" value="" style="html=1;points=[[0,0,0,0,5],[0,1,0,0,-5],[1,0,0,0,5],[1,1,0,0,-5]];perimeter=orthogonalPerimeter;outlineConnect=0;targetShapes=umlLifeline;portConstraint=eastwest;newEdgeStyle={&quot;curved&quot;:0,&quot;rounded&quot;:0};" parent="kjFHU3xgdgTrl40pdijx-1" vertex="1">
          <mxGeometry x="77.5" y="100" width="10" height="40" as="geometry" />
        </mxCell>
        <mxCell id="kjFHU3xgdgTrl40pdijx-4" value="" style="html=1;verticalAlign=bottom;endArrow=block;curved=0;rounded=0;" parent="kjFHU3xgdgTrl40pdijx-1" source="kjFHU3xgdgTrl40pdijx-2" target="kjFHU3xgdgTrl40pdijx-5" edge="1">
          <mxGeometry x="-0.2174" y="85" width="80" relative="1" as="geometry">
            <mxPoint x="70" y="70" as="sourcePoint" />
            <mxPoint x="60" y="100" as="targetPoint" />
            <Array as="points">
              <mxPoint x="100" y="70" />
              <mxPoint x="100" y="100" />
              <mxPoint x="80" y="100" />
            </Array>
            <mxPoint x="60" y="25" as="offset" />
          </mxGeometry>
        </mxCell>
        <mxCell id="kjFHU3xgdgTrl40pdijx-6" value="checkAvailability(car)" style="edgeLabel;html=1;align=center;verticalAlign=middle;resizable=0;points=[];" parent="kjFHU3xgdgTrl40pdijx-4" vertex="1" connectable="0">
          <mxGeometry x="0.0406" y="1" relative="1" as="geometry">
            <mxPoint x="44" y="-6" as="offset" />
          </mxGeometry>
        </mxCell>
        <mxCell id="kjFHU3xgdgTrl40pdijx-3" value="checkOffer(credentials)" style="html=1;verticalAlign=bottom;endArrow=block;curved=0;rounded=0;" parent="WIyWlLk6GJQsqaUBKTNV-1" edge="1" target="kjFHU3xgdgTrl40pdijx-2">
          <mxGeometry width="80" relative="1" as="geometry">
            <mxPoint x="359" y="130" as="sourcePoint" />
            <mxPoint x="525" y="130" as="targetPoint" />
          </mxGeometry>
        </mxCell>
        <mxCell id="kjFHU3xgdgTrl40pdijx-8" value="if car != available" style="text;html=1;align=center;verticalAlign=middle;whiteSpace=wrap;rounded=0;" parent="WIyWlLk6GJQsqaUBKTNV-1" vertex="1">
          <mxGeometry x="260" y="140" width="60" height="30" as="geometry" />
        </mxCell>
        <mxCell id="kjFHU3xgdgTrl40pdijx-9" value="higherRatedCar" style="html=1;verticalAlign=bottom;endArrow=none;curved=0;rounded=0;exitX=1.1;exitY=0.273;exitDx=0;exitDy=0;exitPerimeter=0;startArrow=open;startFill=0;endFill=0;dashed=1;" parent="WIyWlLk6GJQsqaUBKTNV-1" edge="1" target="kjFHU3xgdgTrl40pdijx-2">
          <mxGeometry width="80" relative="1" as="geometry">
            <mxPoint x="360" y="160" as="sourcePoint" />
            <mxPoint x="525" y="160" as="targetPoint" />
          </mxGeometry>
        </mxCell>
        <mxCell id="kjFHU3xgdgTrl40pdijx-10" value="" style="endArrow=none;html=1;rounded=0;exitX=-0.001;exitY=0.369;exitDx=0;exitDy=0;exitPerimeter=0;entryX=1.002;entryY=0.36;entryDx=0;entryDy=0;entryPerimeter=0;" parent="WIyWlLk6GJQsqaUBKTNV-1" edge="1">
          <mxGeometry width="50" height="50" relative="1" as="geometry">
            <mxPoint x="258.7699999999999" y="181.53000000000003" as="sourcePoint" />
            <mxPoint x="669.9999999999999" y="180" as="targetPoint" />
          </mxGeometry>
        </mxCell>
        <mxCell id="kjFHU3xgdgTrl40pdijx-11" value="if car = available" style="text;html=1;align=center;verticalAlign=middle;whiteSpace=wrap;rounded=0;" parent="WIyWlLk6GJQsqaUBKTNV-1" vertex="1">
          <mxGeometry x="260" y="180" width="60" height="30" as="geometry" />
        </mxCell>
        <mxCell id="kjFHU3xgdgTrl40pdijx-12" value="car" style="html=1;verticalAlign=bottom;endArrow=none;curved=0;rounded=0;exitX=1.1;exitY=0.273;exitDx=0;exitDy=0;exitPerimeter=0;startArrow=open;startFill=0;endFill=0;dashed=1;" parent="WIyWlLk6GJQsqaUBKTNV-1" edge="1" target="kjFHU3xgdgTrl40pdijx-2">
          <mxGeometry width="80" relative="1" as="geometry">
            <mxPoint x="360" y="200" as="sourcePoint" />
            <mxPoint x="525" y="200" as="targetPoint" />
          </mxGeometry>
        </mxCell>
        <mxCell id="kjFHU3xgdgTrl40pdijx-13" value="Contract" style="shape=umlLifeline;perimeter=lifelinePerimeter;whiteSpace=wrap;html=1;container=1;dropTarget=0;collapsible=0;recursiveResize=0;outlineConnect=0;portConstraint=eastwest;newEdgeStyle={&quot;curved&quot;:0,&quot;rounded&quot;:0};" parent="WIyWlLk6GJQsqaUBKTNV-1" vertex="1">
          <mxGeometry x="390" y="240" width="100" height="120" as="geometry" />
        </mxCell>
        <mxCell id="kjFHU3xgdgTrl40pdijx-15" value="" style="html=1;points=[[0,0,0,0,5],[0,1,0,0,-5],[1,0,0,0,5],[1,1,0,0,-5]];perimeter=orthogonalPerimeter;outlineConnect=0;targetShapes=umlLifeline;portConstraint=eastwest;newEdgeStyle={&quot;curved&quot;:0,&quot;rounded&quot;:0};" parent="kjFHU3xgdgTrl40pdijx-13" vertex="1">
          <mxGeometry x="45" y="60" width="10" height="50" as="geometry" />
        </mxCell>
        <mxCell id="kjFHU3xgdgTrl40pdijx-14" value="createContract" style="html=1;verticalAlign=bottom;endArrow=none;curved=0;rounded=0;endFill=0;startArrow=classic;startFill=1;" parent="WIyWlLk6GJQsqaUBKTNV-1" target="kjFHU3xgdgTrl40pdijx-2" edge="1">
          <mxGeometry x="0.1429" y="10" width="80" relative="1" as="geometry">
            <mxPoint x="490" y="260" as="sourcePoint" />
            <mxPoint x="519.4799999999998" y="260" as="targetPoint" />
            <mxPoint as="offset" />
          </mxGeometry>
        </mxCell>
        <mxCell id="M6FFniebLymNCkNV-qdE-0" value="Sequence-diagram: booking" style="shape=umlFrame;whiteSpace=wrap;html=1;pointerEvents=0;width=180;height=30;" parent="WIyWlLk6GJQsqaUBKTNV-1" vertex="1">
          <mxGeometry x="210" y="10" width="490" height="360" as="geometry" />
        </mxCell>
      </root>
    </mxGraphModel>
  </diagram>
</mxfile>
